# xmcd
#
# Track frame offsets: 
#        150
#        12886
#        26431
#        39570
#        52445
#        65598
#        79337
#        91612
#        105016
#        117989
#        130446
#        142137
#        155527
#        167636
#        180413
#        192257
#        204489
#        218063
#        230436
#        242656
#        255907
#
# Disc length: 3562 seconds
#
# Revision: 2
# Processed by: cddbd v1.5.2PL0 Copyright (c) Steve Scherf et al.
# Submitted via: ExactAudioCopy v1.0b3
#
DISCID=1b0de815
DTITLE=Five Blind Boys Of Mississippi - 1947-1951  CD, 2
DYEAR=2011
DGENRE=Gospel
TTITLE0=In This World Alone 
TTITLE1=Old Ship Of Zion
TTITLE2=How Far Am I From Canaan
TTITLE3=World Prayer
TTITLE4=Dr. Jesus
TTITLE5=Coming Home
TTITLE6=Mother Don't Worry
TTITLE7=God Leads Little Children
TTITLE8=Precious Memories
TTITLE9=I Was Praying
TTITLE10=Will Jesus Be Waiting For Me
TTITLE11=I Know The Lord Will Make A Way
TTITLE12=Somewhere Listening For My Name
TTITLE13=Jesus Is A Rock In A Weary Land
TTITLE14=Song Of Praise
TTITLE15=All Aboard
TTITLE16=I Wonder, Do You
TTITLE17=Have You Talked To The Man Upstairs
TTITLE18=In The Garden
TTITLE19=(I'll Be) In The Wilderness
TTITLE20=Think Of His Goodness
EXTD=
EXTT0=
EXTT1=
EXTT2=
EXTT3=
EXTT4=
EXTT5=
EXTT6=
EXTT7=
EXTT8=
EXTT9=
EXTT10=
EXTT11=
EXTT12=
EXTT13=
EXTT14=
EXTT15=
EXTT16=
EXTT17=
EXTT18=
EXTT19=
EXTT20=
PLAYORDER=
